<svg xmlns="http://www.w3.org/2000/svg" viewBox="0 0 594.11 441.64"><defs><style>.a{fill:#1f1513;}.b{fill:#d52418;}.c{fill:#e2e7ea;}.d{fill:#fdc207;}</style></defs><path class="a" d="M.55,273.71l0-14.93c2-24.11,12-44,31.06-59.56.78,1.55-.13,2.56-.47,3.54-6.57,18.5-6.57,36.89,1.28,55,9.76,22.47,27,37.1,49.6,45.6,22.81,8.58,45.93,8.57,69.1,1.16a7.93,7.93,0,0,0,4.55-3.56c25.75-39.86,62.1-63.28,109.19-69.68a144.71,144.71,0,0,1,71.17,8.34c1.81.68,2.83.38,4.3-.81,28.84-23.4,61.19-31.24,97.43-21.85,2.65.68,3.53,1.88,2.72,4.41-2.63,9.53-7.94,17.44-14.91,24.32a86,86,0,0,1-26.4,17.59,102.12,102.12,0,0,1-15.34,5.06l2,1.88a149.27,149.27,0,0,1,24,28.6c1.52,2.37,3.24,4.65,4.22,7.34-1.33.05-1.45-1.21-2-1.94C400,287.39,384.62,275,365,268c-1.06-.37-2.08-1.09-3.38-.83.41,1,1.33,1.11,2,1.41a70.38,70.38,0,0,1,11.39,6.1c15,9.91,23,23.52,22.4,41.8-.37,10.93-3.53,21.11-8.07,30.92-9.58,20.65-23.6,38.16-39.23,54.45-26.19,27.31-56.11,50-87.78,70.54-5.92,3.84-6,3.89-2.16,9.85,8.23,12.78,18.85,23.41,30.36,33.18,6,5.1,12.11,10.16,19.77,12.75-2.25.41-4.48.87-6.74,1.22s-4.52.58-7,.88c2.95,8.59,5.86,17,8.73,25.37,3.1,9.1,6.2,18.2,9.19,27.34.44,1.32.72,1.49,2,1,6.44-2.65,12.93-5.19,19.41-7.74,3.36-1.32,5.88-.59,6.75,1.88s-.5,4.44-3.8,5.66l-12.17,4.44c.36,1.09,1.33.86,2,1.09,4.88,1.61,9.79,3.12,14.65,4.77,2.85,1,4,2.92,3.34,5.13-.74,2.37-2.88,3.3-5.88,2.36-6.28-2-12.53-4-19.42-6.26,1.59,2.61,2.93,4.79,4.24,7,.79,1.34,1.59,2.68,2.29,4.07,1,2,.88,4-1.18,5.31s-4,.41-5.25-1.4a174.82,174.82,0,0,1-9.94-16.45c-9.15-16.77-13.25-35.44-20.07-53.07a79.66,79.66,0,0,1-2.67-7.8c-.47-1.72-1.25-2.26-3.05-2.21a138,138,0,0,1-34.43-3.4c-2-.45-2.66.08-3.37,1.8q-13.17,32.13-26.48,64.21c-1.86,4.47-4,8.86-6,13.23a3.14,3.14,0,0,0,0,3c2.79,6,4.53,12.37,6.28,18.73.74,2.69-.28,4.8-2.35,5.43s-4-.5-5-3.2c-1.31-3.71-2.43-7.49-3.64-11.29-1.07.61-1.06,1.82-1.47,2.76-2.24,5.11-4.39,10.27-6.63,15.38-1.29,2.91-3.36,4.05-5.52,3.19-2.36-.93-3.09-3.24-1.82-6.26,2.23-5.29,4.55-10.55,7.1-16.44l-10.15,5.51c-.56.31-1.11.65-1.67,1-3.26,1.77-5.7,1.46-7-.89s-.13-4.61,3.17-6.27c6.87-3.46,13.44-7.53,20.64-10.33a2.19,2.19,0,0,0,1.4-1.51c9.19-26.47,20.67-52,31.12-78,.86-2.14.63-2.78-1.63-3.47a144,144,0,0,1-38.79-18.55,5.68,5.68,0,0,0-4.34-1q-34.71,5.16-69.44,10.22-27.51,4-55,7.9c-1.15.16-2.33.18-3.71.28.32-1.48,1.35-2,2.11-2.68q39.11-34.33,78.29-68.57c1.78-1.56,1.93-2.63.86-4.72A136,136,0,0,1,138,419.06a3.52,3.52,0,0,0-3-2.89c-56.36-15.75-98.78-48.55-124.08-102A112.51,112.51,0,0,1,.55,273.71Z" transform="translate(-0.55 -199.22)"/><path class="b" d="M310.39,528.19c-7.66-2.59-13.76-7.65-19.77-12.75-11.51-9.77-22.13-20.4-30.36-33.18-3.84-6-3.76-6,2.16-9.85,31.67-20.52,61.59-43.23,87.78-70.54,15.63-16.29,29.65-33.8,39.23-54.45,4.54-9.81,7.7-20,8.07-30.92.62-18.28-7.43-31.89-22.4-41.8a70.38,70.38,0,0,0-11.39-6.1c-.72-.3-1.64-.38-2-1.41,1.3-.26,2.32.46,3.38.83,19.58,7,35,19.37,47,36.16.53.73.65,2,2,1.94H414c-.27.61-.13,1,.57,1.11l0,0c0,1.34.89,2.16,1.62,3.09a67.62,67.62,0,0,1,5.78,11,125,125,0,0,1,11.3,44.89c-1,1-.55,2.27-.54,3.4.09,11.05,0,22.07-2.1,33-.47,2.46-2,5-.7,7.64a80.13,80.13,0,0,1-2.65,10.49,160.2,160.2,0,0,1-37.37,65.43C372.49,504.59,352,518,327.37,525A81.73,81.73,0,0,1,310.39,528.19Z" transform="translate(-0.55 -199.22)"/><path class="c" d="M427.23,420.69a80.13,80.13,0,0,0,2.65-10.49,137.09,137.09,0,0,0,3.34-44,125,125,0,0,0-11.3-44.89,68.13,68.13,0,0,0-5.78-11,3.51,3.51,0,0,0-1.62-3.08l0,0a.75.75,0,0,0-.57-1.11h.08c-1-2.69-2.7-5-4.22-7.34a149.27,149.27,0,0,0-24-28.6l-2-1.88a102.12,102.12,0,0,0,15.34-5.06,86,86,0,0,0,26.4-17.59c7-6.88,12.28-14.79,14.91-24.32,1.41-2.84,3.29-1.37,5.19-.66a100.16,100.16,0,0,1,27.66,15.44A99.12,99.12,0,0,1,492.1,255.3a96.39,96.39,0,0,1,9.68,15.55,5.35,5.35,0,0,1,.89,2.56,34,34,0,0,0-15.8,7.9c-17,14.68-23.63,44-14.67,65.45,3.32,8,8.41,14.31,16.5,18a5,5,0,0,0,5.55-.43c3.58-2.54,7.38-4.78,11.08-7.15-.33,4.48-2.92,8.08-5,11.77a102.58,102.58,0,0,1-18.88,24.73C470,404.41,457,412.68,442,417.57c-3.83,1.24-7.78,2-11.55,3.39A3.55,3.55,0,0,1,427.23,420.69Zm20.1-125.95a20.39,20.39,0,1,0-20.54-20.36A20.42,20.42,0,0,0,447.33,294.74Z" transform="translate(-0.55 -199.22)"/><path class="d" d="M505.33,357.14c-3.7,2.37-7.5,4.61-11.08,7.15a5,5,0,0,1-5.55.43c-8.09-3.65-13.18-10-16.5-18-9-21.47-2.36-50.77,14.67-65.45a34,34,0,0,1,15.8-7.9c11.68,1.27,23.14,3.9,34.7,5.91,15.08,2.62,30.14,5.44,45.2,8.21a6,6,0,0,1,3.55,1.32l-38,13.6.1.43c4.65-.6,9.31-1.18,14-1.79l30.29-3.91c.69-.09,1.61-.66,2,.15.54,1.05-.66,1.35-1.26,1.75q-18.9,12.57-37.84,25.08Q530.39,340.68,505.33,357.14Z" transform="translate(-0.55 -199.22)"/><path class="a" d="M447.33,294.74a20.39,20.39,0,1,1,20.38-20.25A20.44,20.44,0,0,1,447.33,294.74Z" transform="translate(-0.55 -199.22)"/></svg>